<svg width="330" height="394" xmlns="http://www.w3.org/2000/svg" xmlns:xlink="http://www.w3.org/1999/xlink" xml:space="preserve" overflow="hidden"><g transform="translate(-586 -118)"><path d="M378.754 311.441C378.228 297.501 371.773 284.449 361.014 275.57 345.984 262.812 325.383 251.833 296.617 241.161 306.723 240.062 316.632 237.594 326.073 233.825 326.073 233.825 315.233 227.338 308.512 200.792 304.249 184.113 320.56 142.411 320.699 113.056 320.699 89.5632 314.025 79.0492 301.425 71.9104 294.148 67.7873 277.377 71.5892 277.377 71.5892 277.377 71.5892 268.709 55.1686 239.717 46.1312 215.88 39.6402 190.44 42.8913 169.001 55.1686 151.07 66.7517 142.402 79.4903 141.985 123.325 141.615 163.492 147.129 199.172 144.583 215.99 143.408 225.301 139.865 234.155 134.294 241.707 143.115 242.445 151.973 242.636 160.817 242.278 133.59 252.605 113.832 263.258 99.3197 275.57 88.5066 284.491 82.039 297.622 81.5567 311.633L81.595 395.869 85.862 398.717C112.231 416.298 178.546 420.464 205.831 421.438L218.143 421.903 186.706 276.634C200.793 280.911 215.451 283.013 230.172 282.867 244.887 283.012 259.538 280.91 273.618 276.634L242.148 421.951 254.407 421.572C282.531 420.709 350.563 416.73 374.971 398.42L378.806 395.543ZM172.64 158.214 172.64 133.959C174.978 133.818 177.306 133.538 179.611 133.12 195.695 131.001 211.391 126.585 226.221 120.007 242.891 111.627 252.451 107.513 266.283 94.9856 268.11 93.1921 271.046 93.2194 272.839 95.0465 273.519 95.7383 273.963 96.6258 274.112 97.5842 275.215 105.202 278.082 121.978 281.898 128.671 283.619 131.961 285.56 135.131 287.709 138.159L287.709 158.214C287.674 189.973 261.936 215.711 230.177 215.746L230.177 215.746C198.415 215.714 172.674 189.975 172.64 158.214ZM230.172 263.689C213.721 264.165 197.374 260.932 182.343 254.23L186.5 252.523C195.505 248.848 201.383 240.08 201.363 230.354L201.363 229.275C219.81 236.809 240.476 236.809 258.924 229.275L258.924 230.34C258.899 240.069 264.778 248.842 273.786 252.518L277.962 254.235C262.942 260.93 246.609 264.161 230.172 263.689Z" transform="matrix(1 0 0 1.00156 520.018 79.1628)"/></g></svg>