<svg width="331" height="394" xmlns="http://www.w3.org/2000/svg" xmlns:xlink="http://www.w3.org/1999/xlink" xml:space="preserve" overflow="hidden"><g transform="translate(-904 -126)"><path d="M379.344 311.926C378.817 297.965 372.353 284.893 361.577 275.999 346.524 263.222 325.89 252.225 297.079 241.537 307.201 240.436 317.126 237.964 326.582 234.19 326.582 234.19 315.725 227.693 308.993 201.105 304.724 184.4 321.06 142.633 321.199 113.232 321.199 89.7029 314.515 79.1725 301.895 72.0226 294.606 67.893 277.81 71.7008 277.81 71.7008 277.81 71.7008 269.128 55.2546 240.091 46.2031 216.217 39.702 190.737 42.9582 169.264 55.2546 151.305 66.8558 142.624 79.6142 142.206 123.517 141.836 163.747 147.358 199.482 144.809 216.327 143.631 225.652 140.083 234.52 134.504 242.084 143.338 242.823 152.21 243.014 161.068 242.655 133.798 252.998 114.01 263.668 99.4746 275.999 88.6445 284.935 82.1669 298.086 81.6838 312.119L81.7222 396.487 85.9959 399.339C112.406 416.947 178.825 421.12 206.152 422.095L218.483 422.56 186.997 277.065C201.106 281.349 215.787 283.454 230.531 283.308 245.269 283.454 259.942 281.348 274.045 277.065L242.526 422.609 254.804 422.229C282.971 421.365 351.109 417.379 375.555 399.041L379.397 396.16ZM172.909 158.46 172.909 134.168C175.251 134.027 177.582 133.746 179.891 133.327 196 131.206 211.721 126.783 226.574 120.194 243.27 111.801 252.845 107.681 266.698 95.1337 268.528 93.3374 271.468 93.3647 273.265 95.1947 273.945 95.8876 274.391 96.7764 274.539 97.7363 275.644 105.366 278.515 122.168 282.338 128.871 284.061 132.167 286.005 135.342 288.157 138.374L288.157 158.46C288.123 190.269 262.345 216.048 230.536 216.082L230.536 216.082C198.724 216.05 172.943 190.271 172.909 158.46ZM230.531 264.1C214.054 264.577 197.682 261.339 182.628 254.626L186.791 252.917C195.81 249.236 201.697 240.455 201.677 230.713L201.677 229.633C220.153 237.178 240.851 237.178 259.327 229.633L259.327 230.699C259.303 240.444 265.191 249.23 274.213 252.912L278.395 254.631C263.352 261.337 246.994 264.573 230.531 264.1Z" fill="#078096" transform="matrix(1.00147 0 0 1 837.818 87.1628)"/></g></svg>